<svg xmlns="http://www.w3.org/2000/svg" viewBox="0 0 25.313 25.314">
    <defs>
        <style>
            .cls-1{fill:#fff}
        </style>
    </defs>
    <path id="icon_search" d="M20.093 17.767a10.721 10.721 0 0 0 2.215-6.6A11.106 11.106 0 0 0 11.233 0 11.241 11.241 0 0 0 0 11.163a11.241 11.241 0 0 0 11.233 11.163 10.547 10.547 0 0 0 6.645-2.2l4.746 4.717a1.536 1.536 0 0 0 2.215 0 1.513 1.513 0 0 0 0-2.2zm-8.86 1.258a7.945 7.945 0 0 1-8.069-7.861 8.069 8.069 0 0 1 16.137 0 7.945 7.945 0 0 1-8.068 7.861z" class="cls-1"/>
</svg>
