<svg version="1.1" xmlns="http://www.w3.org/2000/svg" xmlns:xlink="http://www.w3.org/1999/xlink">
    <defs>
        <symbol id="icon-calendar" viewBox="0 0 18.793 16.852">
            <title>calendar</title>
            <g id="calendar-icon" transform="translate(-873 -22.157)">
              <path id="Path_118" d="M22.366 4.664A1.035 1.035 0 0 0 23.4 3.629V1.035a1.035 1.035 0 1 0-2.07 0v2.594a1.035 1.035 0 0 0 1.036 1.035z"
                class="cls-1" data-name="Path 118" transform="translate(856.084 22.157)" />
              <path id="Path_119" d="M60.558 4.664a1.035 1.035 0 0 0 1.035-1.035V1.035a1.035 1.035 0 1 0-2.07 0v2.594a1.035 1.035 0 0 0 1.035 1.035z"
                class="cls-1" data-name="Path 119" transform="translate(825.796 22.157)" />
              <path id="Path_120" d="M17.965 7.234h-1.907a.828.828 0 0 0 0 1.656h1.08v3.362H1.656V8.89h1.08a.828.828 0 1 0 0-1.656H.828A.828.828 0 0 0 0 8.062v13.7a.828.828 0 0 0 .828.828h17.137a.828.828 0 0 0 .828-.828v-13.7a.828.828 0 0 0-.828-.828zM1.656 20.933v-7.439h15.481v7.44H1.656z"
                class="cls-1" data-name="Path 120" transform="translate(873 16.421)" />
              <path id="Path_121" d="M36.007 8.89h2.575a.828.828 0 0 0 0-1.656h-2.575a.828.828 0 0 0 0 1.656z" class="cls-1" data-name="Path 121"
                transform="translate(845.102 16.421)" />
            </g>
        </symbol>

        
        <symbol id="icon-wallet" viewBox="0 0 22.834 17.219">
            <title>icon wallet</title>
            <g id="wallet" transform="translate(0 -51)">
              <g id="Symbol_8_9" data-name="Symbol 8 – 9">
                <path id="Path_28" d="M17.387 56.48a1.533 1.533 0 0 0-1.531 1.531v1.018a1.536 1.536 0 0 0 1.531 1.535h3.575V56.48zm1.022 2.807a.765.765 0 1 1 .767-.767.765.765 0 0 1-.767.767zM19.839 51H2.62A2.62 2.62 0 0 0 0 53.62v12.727a1.872 1.872 0 0 0 1.872 1.872H19.09a1.872 1.872 0 0 0 1.872-1.872v-5.034h-3.575a2.286 2.286 0 0 1-2.28-2.28v-1.022a2.286 2.286 0 0 1 2.28-2.28h3.575v-1.362a1.5 1.5 0 0 0-1.5-1.5H2.246a.374.374 0 0 1 0-.749h17.219a2.246 2.246 0 0 1 2.246 2.246v11.51a2.626 2.626 0 0 0 1.123-2.152v-9.729A3 3 0 0 0 19.839 51zm-2.452 5.48a1.533 1.533 0 0 0-1.531 1.531v1.018a1.536 1.536 0 0 0 1.531 1.535h3.575V56.48zm1.022 2.807a.765.765 0 1 1 .767-.767.765.765 0 0 1-.767.767zm-1.022-2.807a1.533 1.533 0 0 0-1.531 1.531v1.018a1.536 1.536 0 0 0 1.531 1.535h3.575V56.48zm1.022 2.807a.765.765 0 1 1 .767-.767.765.765 0 0 1-.767.767z"
                  class="cls-1" data-name="Path 28" />
              </g>
            </g>
            </symbol>

        <symbol id="icon-notifications" viewBox="0 0 15.714 19.871">
            <title>notifications</title>
            <g id="notification-icon" transform="translate(-992.998 -19.824)">
              <path id="Path_33" d="M40.762 85.8a1.934 1.934 0 1 0 3.8.5 2.05 2.05 0 0 0-.062-.5z" class="cls-1" data-name="Path 33" transform="translate(957.731 -48.537)"
              />
              <path id="Path_34" d="M27.914 17.2a.827.827 0 0 0-.187-.437c-.021-.021-1.684-1.829-1.684-6.61a5.57 5.57 0 0 0-4.552-5.758V3.313A1.428 1.428 0 0 0 20.078 1.9a1.447 1.447 0 0 0-1.434 1.413v1.1a5.554 5.554 0 0 0-4.552 5.758c0 4.781-1.663 6.589-1.684 6.589a.718.718 0 0 0-.208.437v1.309h15.714V17.2z"
                class="cls-1" data-name="Path 34" transform="translate(980.8 17.924)" />
            </g>
          </symbol>

        <symbol id="icon-search" viewBox="0 0 25.313 25.314">
            <title>search</title>
            <path id="icon_search" d="M20.093 17.767a10.721 10.721 0 0 0 2.215-6.6A11.106 11.106 0 0 0 11.233 0 11.241 11.241 0 0 0 0 11.163a11.241 11.241 0 0 0 11.233 11.163 10.547 10.547 0 0 0 6.645-2.2l4.746 4.717a1.536 1.536 0 0 0 2.215 0 1.513 1.513 0 0 0 0-2.2zm-8.86 1.258a7.945 7.945 0 0 1-8.069-7.861 8.069 8.069 0 0 1 16.137 0 7.945 7.945 0 0 1-8.068 7.861z"
              class="cls-1" />
        </symbol>
</svg>
