<svg style="position: absolute; width: 0; height: 0; overflow: hidden;" version="1.1" xmlns="http://www.w3.org/2000/svg" xmlns:xlink="http://www.w3.org/1999/xlink">
    <defs>
        <symbol id="icon-twitter" viewBox="0 0 26 28">
            <title>twitter</title>
            <path d="M25.312 6.375c-0.688 1-1.547 1.891-2.531 2.609 0.016 0.219 0.016 0.438 0.016 0.656 0 6.672-5.078 14.359-14.359 14.359-2.859 0-5.516-0.828-7.75-2.266 0.406 0.047 0.797 0.063 1.219 0.063 2.359 0 4.531-0.797 6.266-2.156-2.219-0.047-4.078-1.5-4.719-3.5 0.313 0.047 0.625 0.078 0.953 0.078 0.453 0 0.906-0.063 1.328-0.172-2.312-0.469-4.047-2.5-4.047-4.953v-0.063c0.672 0.375 1.453 0.609 2.281 0.641-1.359-0.906-2.25-2.453-2.25-4.203 0-0.938 0.25-1.797 0.688-2.547 2.484 3.062 6.219 5.063 10.406 5.281-0.078-0.375-0.125-0.766-0.125-1.156 0-2.781 2.25-5.047 5.047-5.047 1.453 0 2.766 0.609 3.687 1.594 1.141-0.219 2.234-0.641 3.203-1.219-0.375 1.172-1.172 2.156-2.219 2.781 1.016-0.109 2-0.391 2.906-0.781z"></path>
        </symbol>
        <symbol id="icon-facebook" viewBox="0 0 16 28">
            <title>facebook</title>
            <path d="M14.984 0.187v4.125h-2.453c-1.922 0-2.281 0.922-2.281 2.25v2.953h4.578l-0.609 4.625h-3.969v11.859h-4.781v-11.859h-3.984v-4.625h3.984v-3.406c0-3.953 2.422-6.109 5.953-6.109 1.687 0 3.141 0.125 3.563 0.187z"></path>
        </symbol>
        <symbol id="icon-google-plus" viewBox="0 0 36 28">
            <title>google-plus</title>
            <path d="M22.453 14.266c0 6.547-4.391 11.188-11 11.188-6.328 0-11.453-5.125-11.453-11.453s5.125-11.453 11.453-11.453c3.094 0 5.672 1.125 7.672 3l-3.109 2.984c-0.844-0.812-2.328-1.766-4.562-1.766-3.906 0-7.094 3.234-7.094 7.234s3.187 7.234 7.094 7.234c4.531 0 6.234-3.266 6.5-4.937h-6.5v-3.938h10.813c0.109 0.578 0.187 1.156 0.187 1.906zM36 12.359v3.281h-3.266v3.266h-3.281v-3.266h-3.266v-3.281h3.266v-3.266h3.281v3.266h3.266z"></path>
        </symbol>
        <symbol id="icon-linkedin" viewBox="0 0 24 28">
            <title>linkedin</title>
            <path d="M5.453 9.766v15.484h-5.156v-15.484h5.156zM5.781 4.984c0.016 1.484-1.109 2.672-2.906 2.672v0h-0.031c-1.734 0-2.844-1.188-2.844-2.672 0-1.516 1.156-2.672 2.906-2.672 1.766 0 2.859 1.156 2.875 2.672zM24 16.375v8.875h-5.141v-8.281c0-2.078-0.75-3.5-2.609-3.5-1.422 0-2.266 0.953-2.641 1.875-0.125 0.344-0.172 0.797-0.172 1.266v8.641h-5.141c0.063-14.031 0-15.484 0-15.484h5.141v2.25h-0.031c0.672-1.062 1.891-2.609 4.672-2.609 3.391 0 5.922 2.219 5.922 6.969z"></path>
        </symbol>
        <symbol id="icon-caret" viewBox="0 0 24 24">
            <title>caret</title>
            <path d="M7 10l5 5 5-5z" />
            <path d="M0 0h24v24H0z" fill="none" />
        </symbol>
        <symbol id="icon-menu" viewBox="0 0 24 24">
            <title>menu</title>
            <path d="M0 0h24v24H0z" fill="none"/>
            <path d="M3 18h18v-2H3v2zm0-5h18v-2H3v2zm0-7v2h18V6H3z"/>
        </symbol>
        <symbol id="icon-location" viewBox="0 0 430.114 430.114">
            <path d="M356.208,107.051c-1.531-5.738-4.64-11.852-6.94-17.205C321.746,23.704,261.611,0,213.055,0
            C148.054,0,76.463,43.586,66.905,133.427v18.355c0,0.766,0.264,7.647,0.639,11.089c5.358,42.816,39.143,88.32,64.375,131.136
            c27.146,45.873,55.314,90.999,83.221,136.106c17.208-29.436,34.354-59.259,51.17-87.933c4.583-8.415,9.903-16.825,14.491-24.857
            c3.058-5.348,8.9-10.696,11.569-15.672c27.145-49.699,70.838-99.782,70.838-149.104v-20.262
            C363.209,126.938,356.581,108.204,356.208,107.051z M214.245,199.193c-19.107,0-40.021-9.554-50.344-35.939
            c-1.538-4.2-1.414-12.617-1.414-13.388v-11.852c0-33.636,28.56-48.932,53.406-48.932c30.588,0,54.245,24.472,54.245,55.06
            C270.138,174.729,244.833,199.193,214.245,199.193z"/>
        </symbol>
        <symbol id="icon-close" viewBox="0 0 24 24">
            <path d="M19 6.41L17.59 5 12 10.59 6.41 5 5 6.41 10.59 12 5 17.59 6.41 19 12 13.41 17.59 19 19 17.59 13.41 12z"/>
            <path d="M0 0h24v24H0z" fill="none"/>
        </symbol>
        <symbol id="icon-arrow" viewBox="0 0 292.359 292.359">
            <path d="M222.979,133.331L95.073,5.424C91.456,1.807,87.178,0,82.226,0c-4.952,0-9.233,1.807-12.85,5.424
                c-3.617,3.617-5.424,7.898-5.424,12.847v255.813c0,4.948,1.807,9.232,5.424,12.847c3.621,3.617,7.902,5.428,12.85,5.428
                c4.949,0,9.23-1.811,12.847-5.428l127.906-127.907c3.614-3.613,5.428-7.897,5.428-12.847
                C228.407,141.229,226.594,136.948,222.979,133.331z"/>
        </symbol>
        <symbol id="icon-arrow-bottom" viewBox="0 0 292.362 292.362">
            <path d="M286.935,69.377c-3.614-3.617-7.898-5.424-12.848-5.424H18.274c-4.952,0-9.233,1.807-12.85,5.424
                C1.807,72.998,0,77.279,0,82.228c0,4.948,1.807,9.229,5.424,12.847l127.907,127.907c3.621,3.617,7.902,5.428,12.85,5.428
                s9.233-1.811,12.847-5.428L286.935,95.074c3.613-3.617,5.427-7.898,5.427-12.847C292.362,77.279,290.548,72.998,286.935,69.377z"/>
        </symbol>
        <symbol id="icon-user">
            <path d="M21.556,31.992a5.8,5.8,0,1,0-7.517,0,7.694,7.694,0,0,0-5.853,7.473v1.3a4.143,4.143,0,0,0,4.125,4.151H23.283a4.143,4.143,0,0,0,4.127-4.151v-1.3A7.7,7.7,0,0,0,21.556,31.992Zm-7.95-4.439A4.192,4.192,0,1,1,17.8,31.768,4.208,4.208,0,0,1,13.606,27.552ZM25.8,40.763a2.526,2.526,0,0,1-2.515,2.53H12.312A2.525,2.525,0,0,1,9.8,40.763v-1.3a6.065,6.065,0,0,1,6.04-6.076h3.92a6.065,6.065,0,0,1,6.04,6.076v1.3Z" transform="translate(-8.188 -21.719)"/>            
        </symbol>
        <symbol id="icon-lock">
            <path d="M22.549,111.078H21.905v-1.931a4.905,4.905,0,0,0-9.808,0v1.931H11.454a3.238,3.238,0,0,0-3.267,3.2v9.278a3.237,3.237,0,0,0,3.267,3.2h11.1a3.237,3.237,0,0,0,3.268-3.2v-9.278A3.238,3.238,0,0,0,22.549,111.078Zm-8.878-1.931a3.331,3.331,0,0,1,6.661,0v1.931H13.671v-1.931Zm10.258,14.408a1.366,1.366,0,0,1-1.379,1.351h-11.1a1.367,1.367,0,0,1-1.379-1.351v-9.278a1.366,1.366,0,0,1,1.379-1.35h11.1a1.366,1.366,0,0,1,1.379,1.35v9.278ZM17,117.31a1.337,1.337,0,0,0-.313,2.644v1.463a0.314,0.314,0,0,0,.628,0v-1.463A1.337,1.337,0,0,0,17,117.31Z" transform="translate(-8.188 -104.344)"/>            
        </symbol>
        <symbol id="icon-bell" viewBox="0 0 24 24">
            <path xmlns="http://www.w3.org/2000/svg" d="M12 22c1.1 0 2-.9 2-2h-4c0 1.1.89 2 2 2zm6-6v-5c0-3.07-1.64-5.64-4.5-6.32V4c0-.83-.67-1.5-1.5-1.5s-1.5.67-1.5 1.5v.68C7.63 5.36 6 7.92 6 11v5l-2 2v1h16v-1l-2-2z"/>
        </symbol>
        <symbol id="icon-settings" viewBox="0 0 24 24">
            <path d="M19.43 12.98c.04-.32.07-.64.07-.98s-.03-.66-.07-.98l2.11-1.65c.19-.15.24-.42.12-.64l-2-3.46c-.12-.22-.39-.3-.61-.22l-2.49 1c-.52-.4-1.08-.73-1.69-.98l-.38-2.65C14.46 2.18 14.25 2 14 2h-4c-.25 0-.46.18-.49.42l-.38 2.65c-.61.25-1.17.59-1.69.98l-2.49-1c-.23-.09-.49 0-.61.22l-2 3.46c-.13.22-.07.49.12.64l2.11 1.65c-.04.32-.07.65-.07.98s.03.66.07.98l-2.11 1.65c-.19.15-.24.42-.12.64l2 3.46c.12.22.39.3.61.22l2.49-1c.52.4 1.08.73 1.69.98l.38 2.65c.03.24.24.42.49.42h4c.25 0 .46-.18.49-.42l.38-2.65c.61-.25 1.17-.59 1.69-.98l2.49 1c.23.09.49 0 .61-.22l2-3.46c.12-.22.07-.49-.12-.64l-2.11-1.65zM12 15.5c-1.93 0-3.5-1.57-3.5-3.5s1.57-3.5 3.5-3.5 3.5 1.57 3.5 3.5-1.57 3.5-3.5 3.5z"/>
        </symbol>
        <symbol id="icon-dashboard" viewBox="0 0 24 24">
            <path d="M3 13h8V3H3v10zm0 8h8v-6H3v6zm10 0h8V11h-8v10zm0-18v6h8V3h-8z"/>
        </symbol>
        <symbol id="icon-channel-book" viewBox="0 0 125.9 126.4">
            <path d="M0.1,50.7c0-11.7,0.1-23.3-0.1-35c-0.1-4.1,1.5-6.3,5.1-8.1C22.9-1.1,40.6-3.6,58.5,7c2.3,1.3,4,0.6,6-0.5   C82.4-3.7,100-0.8,117.5,8c3.6,1.8,4.8,4.5,4.8,8.5c-0.1,16.5-0.1,33-0.1,49.5c0,2.3-0.4,4.8,1.1,6.8c3.5,4.6,3,9.4,1.4,14.7   c-3.4,11.2-8.7,22.1-7.5,34.4c0.3,3.1-1.6,4.5-4.7,4.5c-9.2,0-18.3,0-27.5,0c-3.4,0-5.1-2-4.8-5c1.1-10.4-4.5-18.9-7.6-28.1   c-1-3-2.8-4.1-5.6-2.7c-4.2,2.1-8.2,1.2-12.5-0.2c-16-5.3-32-5.8-47.9,0.7c-5.1,2.1-6.6,1-6.6-4.7C0.1,74.3,0.1,62.5,0.1,50.7z    M58.1,48.7c0-10-0.2-20,0.1-29.9c0.1-4.2-1.6-6.5-5.1-8.2C38.1,3.2,23.4,5.4,9,12.3c-2.8,1.3-2.8,3.8-2.8,6.4c0,10.5,0,21,0,31.4   c0,9.8,0,19.6,0,29.4c0,2.6,0.3,4.9,3.9,3.8c14.6-4.5,29.2-3.9,43.7,0.3c3.6,1,4.3-0.2,4.3-3.5C58,69.6,58.1,59.1,58.1,48.7z    M64.3,48.9c0,10.5,0,21,0,31.5c0,1.4-0.8,3.7,1.9,3.7c2.2,0,2.1-1.7,1.9-3.2c-0.4-3.3,2-4.3,4.4-5.1c3.3-1.1,4.5-3.1,4.8-6.6   c0.5-6.6,0.6-13.3,0.8-19.9c0.2-6.9,4.4-11.7,9.9-11.5c4.5,0.1,7.9,4.8,8,11.4c0.1,5.3,0.2,10.7,1.1,15.9c0.7,4.1,3.5,5.9,7.4,4.6   c2.3-0.7,4.5-1,6.7,0.2c4.2,2.2,4.7,1.8,4.8-3.2c0-16.1,0-32.3,0.1-48.4c0-3.3-1.1-5.4-4.2-6.5c-2.3-0.8-4.6-1.9-7-2.7   c-12.3-4-24.5-4.5-36.3,1.9c-3.1,1.7-4.6,3.9-4.5,7.5C64.4,28.6,64.3,38.7,64.3,48.9z M98.5,120.1c2.7,0,5.3-0.1,8,0   c3,0.1,5-0.9,4.7-4.2c-0.5-5.7,1.5-10.8,3.2-16c1.8-5.5,3.5-11.1,5.2-16.7c0.5-1.8,1-3.8-0.6-5.1c-1.7-1.4-3.1,0.1-4.4,1   c-1.9,1.2-4,1.6-5.1-0.8c-1.6-3.7-3.3-2.9-5.6-0.8c-1.4,1.2-3.1,1.9-4.4,0.3c-3.6-4.4-8.4-7.9-8.6-14.6c-0.2-4.6-0.6-9.3-0.8-13.9   c-0.1-2,0.5-5.1-2.4-5.2c-3.4-0.1-3.2,3.1-3.3,5.6c-0.3,8-0.7,15.9-1,23.9c-0.1,2.3-0.6,4.6-3,5.2c-6.1,1.5-5,4.9-3.2,9.3   c3.3,7.8,6.7,15.7,8.8,23.8c2.1,8.1,1.4,8.3,10,8.2C96.8,120.1,97.6,120.1,98.5,120.1z"/>
            <path d="M32.8,15.9c4.6,0,8.9-0.2,13,1.6c1.5,0.7,3.3,1.2,2.5,3.5c-0.6,1.9-1.7,3.1-4,2.5c-8.2-2.2-16.4-1.7-24.6,0.2   c-2,0.4-3.6,0.4-4.3-1.9c-0.8-2.7,0.9-3.6,3-4.2C23.2,16.2,28.1,15.7,32.8,15.9z"/>
            <path d="M33.3,48c3.9-0.2,8,0.3,12,1.6c1.7,0.5,3.8,0.9,2.9,3.6c-0.7,2-1.9,3-4.2,2.4c-7.9-2.3-15.8-1.7-23.7,0.1   c-2.2,0.5-4.1,0.5-4.7-2.1c-0.7-2.9,1.6-3.2,3.6-3.7C23.7,48.8,28.2,47.8,33.3,48z"/>
            <path d="M32.3,32.1c4.6-0.2,8.9,0,13,1.4c1.8,0.6,3.6,1.2,2.7,3.8c-0.8,2.2-2.3,2.5-4.4,1.9c-7.7-2.1-15.4-1.8-23.1,0.1   c-2.3,0.6-4.4,0.9-5-2.1s1.9-3,3.7-3.6C23.6,32.3,28.1,31.7,32.3,32.1z"/>
            <path d="M33.4,64c4-0.2,8,0.5,11.8,1.7c1.7,0.5,3.8,1,2.9,3.7c-0.7,2.1-2.2,2.7-4.3,2c-7.4-2.3-14.8-1.5-22.2-0.2   c-2.2,0.4-5,1.8-5.8-1.6c-0.9-3.9,2.6-3.6,4.8-4.1C24.8,64.6,29.1,63.9,33.4,64z"/>
            <path d="M89.5,16c4.5-0.2,8.6,0,12.6,1.3c1.8,0.6,3.5,1.4,2.8,3.9c-0.6,2.3-2.2,2.4-4.3,2c-7.7-1.7-15.4-1.7-23.1,0.1   c-2.2,0.5-4.4,1.2-5.2-1.9c-0.9-3.4,1.8-3.3,3.8-3.9C80.5,16.2,85.1,15.7,89.5,16z"/>
        </symbol>
        <symbol id="icon-attendance" viewBox="0 0 24 24">
            <defs>
                <path d="M0 0h24v24H0V0z" id="a"/>
            </defs>
            <clipPath id="b">
                <use overflow="visible" xlink:href="#a"/>
            </clipPath>
            <path clip-path="url(#b)" d="M14 10H2v2h12v-2zm0-4H2v2h12V6zM2 16h8v-2H2v2zm19.5-4.5L23 13l-6.99 7-4.51-4.5L13 14l3.01 3 5.49-5.5z"/>
        </symbol>
        <symbol id="icon-messages"  viewBox="0 0 24 24">
            <path d="M20 4H4c-1.1 0-1.99.9-1.99 2L2 18c0 1.1.9 2 2 2h16c1.1 0 2-.9 2-2V6c0-1.1-.9-2-2-2zm0 4l-8 5-8-5V6l8 5 8-5v2z"/>
        </symbol>
        <symbol id="icon-complaints" viewBox="0 0 96.6 99">
            <path d="M47.9,0C69.5-0.1,85.1,12.9,89,34.4c0.3,1.5,0.4,2.7,1.8,3.8c7.5,5.9,7.7,19.4,0.3,25.3c-1.5,1.2-1.9,2.4-1.9,4.2   c0.1,5.2-0.1,10.3,0.1,15.5c0.1,3.1-1.2,4.3-4.1,4.1c-1.2-0.1-2.3,0.1-3.5,0c-5.1-0.5-9.2,0.9-13.4,4.5c-9.9,8.3-21.7,9-33.4,4.1   c-11.5-4.8-18.1-13.8-19.6-26.2c-0.4-3.4,0-6.4-5.4-5c-3.7,1-7-1.6-8.6-5.4c-2.9-7-0.9-16,4.7-21.3c1.2-1.1,1.1-2.3,1.3-3.6   C10.7,13.3,26.4,0,47.9,0z M67.4,87.6c-2.4-0.4-3.3-0.2-4.5,1c-2.7,2.9-10,3.9-13.3,2.1c-2-1.1-3.4-2.7-3.4-5.1c0-2.5,1-5,3.4-5.7   c4.5-1.2,9.2-1.8,13.2,1.7c3.6,3.2,8.3,2.4,10.6-1.8c2.8-5.2,3.7-10.8,4.1-16.7c0.5-7-0.1-11.9-7.7-15c-6.7-2.7-11.7-8.6-18.2-12.1   c-5-2.7-9.8-2.8-14.5,0.5c-4.7,3.4-9.8,5.7-15.8,5c-1.6-0.2-2.7,0.4-2.4,2.2c1.3,8.6-1.5,17.2,0.3,25.8c2.3,11,8.1,19.4,18.8,23.4   C48.1,96.6,57.8,94.9,67.4,87.6z M48.5,13.1C37.8,13,28.2,17.7,23.2,25.6c-2.2,3.5-5.6,8.5-3.1,11.1c2.8,2.8,8.5,0.7,11.9-2.1   c9.6-7.9,18.4-5.2,27.2,1.3c4.7,3.5,9.6,6.7,14.4,9.9c2.3,1.6,3.7,1.8,3.9-1.9C78.4,26.1,66.4,13.2,48.5,13.1z M47,4   c-4.2-0.1-10.1,0.9-15.6,3.5c-11.4,5.3-18,14.3-20.1,26.7c-0.3,1.9,0,3.4,2.2,3.6c2.3,0.3,1.4-1.8,1.7-2.8   c1.7-7.5,5.4-13.8,11.4-18.8C42.4,2.9,75.7,7.3,81,35c0.2,1-1,3.5,1.9,2.9c2.1-0.5,2.4-2,1.9-3.8c-0.1-0.3-0.2-0.6-0.2-1   C81.5,15.7,67.2,4.1,47,4z M14.2,50.9L14.2,50.9c0.1-1.7,0.1-3.3,0.1-5c0.1-2.8-1.4-4.4-4-4.7C7.4,40.9,5.2,42,5,45   c-0.3,3.9-0.3,7.9,0,11.9c0.2,2.7,2.4,4,5,3.9c2.5-0.2,4.3-1.6,4.3-4.5C14.2,54.5,14.2,52.7,14.2,50.9z M82.2,50.4   C82.1,50.4,82.1,50.4,82.2,50.4c-0.1,2.1-0.1,4.3,0,6.4c0.1,2.7,1.9,3.8,4.2,4s4.3-1,4.8-3.4c0.8-4.1,0.9-8.2,0.4-12.3   c-0.4-3-2.6-4-5.4-3.9c-2.9,0.1-3.9,2-3.9,4.7C82.2,47.4,82.2,48.9,82.2,50.4z M76.5,83.2c2.4,0,4.4,0,6.3,0c1.3,0,2.4-0.2,2.4-1.8   c0-5,0-10,0-15c0-1.5-0.9-2.1-2.3-2.1c-1.3,0-1.4,1.2-1.5,2.2C81.2,72.2,78.9,77.4,76.5,83.2z M55,83c-1.6,0.6-4.6-0.9-4.6,2.1   c0,2.9,2.9,2.1,4.7,2.1s4.7,0.8,4.7-2.1C59.8,82.3,56.9,83.4,55,83z"/>
        </symbol>
        <symbol id="icon-fees" viewBox="0 0 128 72.6">
            <path d="M128,72.3c-8.5,0.1-17,0.3-25.5,0.3c-29.3,0-58.6,0-87.9,0c-6.3,0-6.8-0.5-6.8-6.9c0-16.7,0-33.3,0-50c0-6,0.7-6.7,6.6-6.7   c36,0,71.9,0,107.9,0c2,0,4-0.1,5.7,1.3C128,31,128,51.6,128,72.3z M44.5,67.4c9,0,18-0.1,27,0.1c3.8,0.1,5.3-1.2,5.3-5.2   c-0.2-14.2-0.2-28.3,0-42.5c0.1-4.3-1.6-5.4-5.6-5.4c-17.3,0.2-34.7,0.2-52,0c-4.5,0-6.2,1.2-6.1,5.9c0.3,13.8,0.2,27.7,0,41.5   c-0.1,4.5,1.7,5.8,5.9,5.7C27.5,67.2,36,67.4,44.5,67.4z M123.6,41.1c0-7.3-0.1-14.7,0.1-22c0.1-3.4-1.1-4.8-4.6-4.7   c-10.7,0.1-21.3,0.1-32,0c-3.6-0.1-5.1,1.2-5.1,4.9c0.1,14.3,0.1,28.7,0,43c0,3.7,1.4,5.1,5,5c10.7-0.1,21.3-0.1,32,0   c3.4,0,4.7-1.3,4.7-4.8C123.5,55.5,123.6,48.3,123.6,41.1z"/>
            <path d="M0,0.3C9.7,0.2,19.3,0,29,0c28.1,0,56.3-0.1,84.4,0c2.2,0,6-1.2,6,2.4c0,3.4-3.7,2.7-6,2.7C79.6,5.2,45.8,5.1,12,5.2   c-7.6,0-7.7,0-7.7,7.7c0,15.2,0,30.3,0,45.5c0,2.6,0.3,6.1-4.3,3.9C0,41.6,0,21,0,0.3z"/>
            <path d="M73,40.4c-0.5,6.2-1.5,12-5.6,16.9c-5.7,6.8-14,6.9-19.7,0.2c-7.2-8.5-7.5-23.7-0.5-32.4c6-7.5,14.8-7.4,20.6,0.2   C71.3,29.8,72.6,35,73,40.4z M47.3,40.5c0.1,4.7,0.9,9.1,3.8,12.8c3.8,5,9.2,4.9,12.9,0c5.1-6.7,4.9-18.8-0.5-25.3   c-3.7-4.5-8.5-4.5-12.2,0.1C48.4,31.7,47.4,36,47.3,40.5z"/>
            <path d="M16.8,26.5c0.4-2.3-1.2-5.9,2-7.3c4-1.8,8.5-1.3,12.7-0.3c1,0.2,1.6,1.2,1.5,2.3c-0.1,1.1-0.9,1.8-1.9,2s-2,0.4-3,0.3   c-4.5-0.6-6.5,1-6,5.8c0.2,2.2,0.4,5.4-2.9,5.2c-3-0.1-2.2-3.1-2.4-5.2C16.8,28.6,16.8,27.8,16.8,26.5z"/>
            <path d="M24.6,63.8c-2.2-0.6-5.9,1.4-7.1-2.1c-1.4-3.9-1-8.2-0.1-12.2c0.2-1,1.1-1.7,2.2-1.7c1.1,0,1.9,0.7,2.2,1.7   c0.3,1.1,0.6,2.3,0.4,3.4c-0.6,4.7,1.2,6.8,6.1,6.2c1.8-0.2,4.6-0.5,4.6,2.3c0,3-2.8,2.6-4.9,2.8C27,64.1,26,63.9,24.6,63.8z"/>
            <path d="M120.2,27.1c-0.6,2.6,1.3,7.2-2.8,7.4c-4.1,0.2-2.5-4.3-2.6-6.7c-0.1-2.9-1.1-4.3-4.2-4.1c-1.5,0.1-3,0-4.5-0.2   c-1.2-0.2-2.2-0.8-2.3-2.2c-0.1-1.4,0.8-2.2,2-2.4c3.8-0.7,7.7-1.1,11.3,0.1C121.4,20.2,119.6,24.1,120.2,27.1z"/>
            <path d="M111.9,63.8c-2,0.2-4,0.6-5.9-0.1c-1.2-0.4-2.1-1.1-2-2.4c0.1-1.4,1.1-1.9,2.3-2.2c0.5-0.1,1-0.2,1.5-0.1   c5.3,0.8,7.7-1.3,7-6.8c-0.2-1.8-0.1-4.1,2.3-4.2c2.8-0.1,2.7,2.3,3,4.3c0.1,0.8,0,1.7,0,2.5C120.1,62.7,120.3,64.2,111.9,63.8z"/>
        </symbol>
        <symbol id="icon-grade-book" viewBox="0 0 24 24">
            <path d="M12 11.55C9.64 9.35 6.48 8 3 8v11c3.48 0 6.64 1.35 9 3.55 2.36-2.19 5.52-3.55 9-3.55V8c-3.48 0-6.64 1.35-9 3.55zM12 8c1.66 0 3-1.34 3-3s-1.34-3-3-3-3 1.34-3 3 1.34 3 3 3z"/>
        </symbol>
        <symbol id="icon-chatting" viewBox="0 0 24 24">
            <path d="M20 2H4c-1.1 0-1.99.9-1.99 2L2 22l4-4h14c1.1 0 2-.9 2-2V4c0-1.1-.9-2-2-2zm-2 12H6v-2h12v2zm0-3H6V9h12v2zm0-3H6V6h12v2z"/>
            <path d="M0 0h24v24H0z" fill="none"/>
        </symbol>
        <symbol id="icon-performance"  viewBox="0 0 96.343 96.343">
            <path d="M94.171,20.444L82.449,10.222L70.728,0L59.005,10.222L47.283,20.444h12.828C55.792,46.975,31.278,67.613,3.382,63.225   c-1.227-0.191-1.724,1.46-0.518,1.879c34.716,12.082,74.711-7.77,80.497-44.66H94.171z"/>
            <path d="M68.171,54.722c-3.604,3.332-7.635,6.235-12,8.663v32.958h12V54.722z"/>
            <path d="M38.171,96.343h12V66.324c-3.813,1.625-7.827,2.906-12,3.802V96.343z"/>
            <path d="M74.171,96.343h12V23.444h-0.303c-1.883,9.304-5.971,17.725-11.697,24.837V96.343z"/>
            <path d="M14.171,70.926c-4.075-0.596-8.088-1.552-12-2.895v28.312h12V70.926z"/>
            <path d="M20.171,96.343h12V71.135c-2.729,0.331-5.51,0.505-8.335,0.505c-1.226,0-2.447-0.046-3.665-0.112V96.343z"/>
        </symbol>
        <symbol id="icon-profile"  viewBox="0 0 24 24">
            <path d="M12 2C6.48 2 2 6.48 2 12s4.48 10 10 10 10-4.48 10-10S17.52 2 12 2zm0 3c1.66 0 3 1.34 3 3s-1.34 3-3 3-3-1.34-3-3 1.34-3 3-3zm0 14.2c-2.5 0-4.71-1.28-6-3.22.03-1.99 4-3.08 6-3.08 1.99 0 5.97 1.09 6 3.08-1.29 1.94-3.5 3.22-6 3.22z"/>
            <path d="M0 0h24v24H0z" fill="none"/>    
        </symbol>
        <symbol id="icon-bus" viewBox="0 0 128 127.9">
            <path d="M112.1,127.9c-5,0-10,0-15,0c-2.3-2.5-5.1-4.7-5-8.7c0-2.1-1.9-1.5-3.1-1.5c-16.6,0-33.2,0-49.9,0c-1.2,0-3.1-0.6-3.1,1.5   c0.1,4-2.8,6.1-5,8.7c-5.3,0-10.7,0-16,0c-1.6-2.2-4.7-3.7-4.6-6.7c0.3-8.5-3.5-16.4-2.8-25c0.8-10.1,0.1-20.3,0.2-30.4   c0-2.5,0-4.4-3.4-4.8c-3-0.3-4.4-2.7-4.4-5.7C0,49.2,0,43,0,36.9c0-3.3,1.4-5.7,4.7-6c2.8-0.3,3.2-1.7,3.1-3.9c-0.1-1.3,0-2.7,0-4   C7.8,8,9.5,5.5,23,0c28.3,0,56.7,0,85,0c5.1,2.3,9.4,5.3,11,11.1c1,3.7,1.3,7.5,1.2,11.3c0,4.1-1.1,8.7,5.2,9.3   c0.9,0.1,1.7,1.4,2.6,2.2c0,8,0,16,0,24c-1.5,1.5-2.8,3.4-5.2,3.4c-2.3,0-2.5,1.5-2.6,3.3c-0.7,17.4,1.6,34.9-2.1,52.3   C117.2,121.6,116.6,125.5,112.1,127.9z M13,60.4c0,13.7,0,27.3,0,41c0,9,1.5,10.6,10.6,11.2c1.5,0.1,3,0.1,4.5,0.1   c17,0,34,0,50.9,0c8.8,0,17.7,0.2,26.5-0.2c8.3-0.4,9.7-2.2,9.7-10.4c0-24.6,0-49.3,0-73.9c0-4.2,0.1-8.3-0.3-12.5   C114.2,8.6,111,5.3,104,5.2C78.2,5.1,52.4,5,26.6,5.3C16.2,5.4,13.1,9.1,13,19.6C12.9,33.1,13,46.7,13,60.4z M22.7,122.8   c1.7,0,3.3,0,5,0c2,0,3.1-1,3.2-3c0.1-2.4-1.7-2-3.1-2.1c-3-0.3-5.9-0.5-8.9-0.7c-1.3-0.1-3.2-1.1-3.4,1.4c-0.2,2.1,0,4.2,2.8,4.4   C19.7,122.9,21.2,122.8,22.7,122.8z M105,122.8L105,122.8c1.5,0,3,0,4.5,0c2.7,0.1,3.4-1.6,3.4-3.9c0-3.3-2.3-2-3.9-1.9   c-2.1,0.1-4.3,0.3-6.4,0.7c-1.8,0.4-4.9-1.6-5,2c-0.1,3.9,3.2,2.9,5.5,3.1C103.6,122.9,104.3,122.8,105,122.8z M5.2,45.7   c0,2.7,0,5.3,0,8c0,0.9-0.2,2.2,1.3,2.2c1,0,1.3-0.9,1.3-1.8c0-5.5,0-11,0-16.4c0-0.9-0.4-1.7-1.4-1.6c-1.1,0-1.2,1-1.2,1.8   C5.2,40.4,5.2,43.1,5.2,45.7z M123,46.1L123,46.1c0-2.7,0-5.3,0-8c0-0.9,0.2-2.2-1.3-2.2c-1,0-1.3,0.9-1.3,1.7c0,5.5,0,11,0,16.4   c0,0.9,0.4,1.7,1.4,1.7c1.1,0,1.2-0.9,1.2-1.8C123,51.5,123,48.8,123,46.1z"/>
            <path d="M64.4,25.6c11.3,0,22.7-0.1,34,0c8.6,0.1,11.8,3.3,11.8,11.8c0,9.2,0,18.3,0,27.5c0,7-3.9,11.6-10.9,11.6   c-23.6,0.3-47.3,0.3-70.9,0.2c-6.6,0-10.1-3.8-10.2-10.4c-0.1-10.2-0.1-20.3,0-30.5c0.1-6.6,3.6-10.1,10.3-10.2   C40.4,25.5,52.4,25.6,64.4,25.6L64.4,25.6z M63.7,71.6c0-0.1,0-0.2,0-0.3c11.5,0,23,0.1,34.4,0c5.6,0,6.9-1.4,6.9-6.7   c0.1-9.3-0.1-18.6,0.1-27.9c0.1-4.2-1.5-6-5.8-6c-23.5,0.1-46.9,0.1-70.4,0c-4.3,0-6,1.6-5.9,5.9c0.2,9.5,0,19,0.1,28.4   c0,5.8,0.8,6.6,6.7,6.6C41.1,71.7,52.4,71.6,63.7,71.6z"/>
            <path d="M65.3,22.9c-8.3,0-16.7,0-25,0c-5.2,0-7-2-7-7.4c-0.1-5.8,1.7-7.8,7.1-7.8c16.7-0.1,33.3-0.1,50,0c5.6,0,7,1.7,6.9,7.9   c-0.1,5.5-1.7,7.3-7,7.3C82,23,73.7,22.9,65.3,22.9z M65.4,17.8c7.8,0,15.6,0,23.4,0c2.1,0,3.5-0.1,3.4-2.9   c-0.1-2.7-1.9-2.2-3.5-2.2c-15.6,0-31.2,0-46.8,0c-1.6,0-3.4-0.3-3.5,2.3c-0.1,2.8,1.6,2.8,3.6,2.8C49.8,17.8,57.6,17.8,65.4,17.8z   "/>
            <path d="M29.8,84.4c6,0.1,11.4,5.8,11.3,11.7c-0.2,6-5.8,11.4-11.8,11.2c-6.1-0.1-11.3-5.6-11.2-11.7   C18.2,89.6,23.8,84.3,29.8,84.4z M29.8,89.6c-4,0-6.4,1.9-6.6,5.9c-0.2,3.9,1.8,6.3,5.8,6.6c4,0.3,7-2.3,6.9-6.1   C35.9,92.1,33.8,89.8,29.8,89.6z"/>
            <path d="M98.6,107.4c-6,0-11.5-5.5-11.5-11.5s5.5-11.5,11.5-11.4c6,0,11.5,5.5,11.4,11.5C110.1,102,104.7,107.4,98.6,107.4z    M98.7,89.6c-4.1,0.1-6.4,2.3-6.4,6.2c0,3.9,2.1,6.2,6.1,6.4c4,0.1,6.8-2.5,6.6-6.4C104.8,91.8,102.6,89.7,98.7,89.6z"/>
        </symbol>
        <symbol id="icon-left-arrow" viewBox="0 0 24 24">
            <path d="M15.41 16.09l-4.58-4.59 4.58-4.59L14 5.5l-6 6 6 6z"/>
            <path d="M0-.5h24v24H0z" fill="none"/>
        </symbol>
        <symbol id="icon-right-arrow" viewBox="0 0 24 24">
            <path d="M8.59 16.34l4.58-4.59-4.58-4.59L10 5.75l6 6-6 6z"/>
            <path d="M0-.25h24v24H0z" fill="none"/>
        </symbol>
        <symbol id="icon-filter" viewBox="0 0 24 24">
            <path d="M10 18h4v-2h-4v2zM3 6v2h18V6H3zm3 7h12v-2H6v2z"/>
            <path d="M0 0h24v24H0z" fill="none"/>
        </symbol>
        <symbol id="icon-arrow-down" viewBox="0 0 24 24">
            <path d="M0 0h24v24H0V0z" fill="none"/>
            <path d="M20 12l-1.41-1.41L13 16.17V4h-2v12.17l-5.58-5.59L4 12l8 8 8-8z" fill="#010101"/>
        </symbol>
        <symbol id="icon-add" viewBox="0 0 24 24">
            <path d="M19 13h-6v6h-2v-6H5v-2h6V5h2v6h6v2z"/>
            <path d="M0 0h24v24H0z" fill="none"/>
        </symbol>
        <symbol id="icon-search" viewBox="0 0 24 24">
            <path d="M15.5 14h-.79l-.28-.27C15.41 12.59 16 11.11 16 9.5 16 5.91 13.09 3 9.5 3S3 5.91 3 9.5 5.91 16 9.5 16c1.61 0 3.09-.59 4.23-1.57l.27.28v.79l5 4.99L20.49 19l-4.99-5zm-6 0C7.01 14 5 11.99 5 9.5S7.01 5 9.5 5 14 7.01 14 9.5 11.99 14 9.5 14z"/>
            <path d="M0 0h24v24H0z" fill="none"/>
        </symbol>
        <symbol id="icon-folder" viewBox="0 0 24 24">
            <path d="M0 0h24v24H0z" fill="none"/>
            <path d="M20 6h-8l-2-2H4c-1.1 0-1.99.9-1.99 2L2 18c0 1.1.9 2 2 2h16c1.1 0 2-.9 2-2V8c0-1.1-.9-2-2-2zm0 12H4V8h16v10z"/>
        </symbol>
        <symbol id="icon-view-list" viewBox="0 0 24 24">
            <path d="M4 14h4v-4H4v4zm0 5h4v-4H4v4zM4 9h4V5H4v4zm5 5h12v-4H9v4zm0 5h12v-4H9v4zM9 5v4h12V5H9z"/>
            <path d="M0 0h24v24H0z" fill="none"/>
        </symbol>
        <symbol id="icon-table" viewBox="0 0 24 24">
            <path d="M0 0h24v24H0z" fill="none"/>
            <path d="M20 2H4c-1.1 0-2 .9-2 2v16c0 1.1.9 2 2 2h16c1.1 0 2-.9 2-2V4c0-1.1-.9-2-2-2zM8 20H4v-4h4v4zm0-6H4v-4h4v4zm0-6H4V4h4v4zm6 12h-4v-4h4v4zm0-6h-4v-4h4v4zm0-6h-4V4h4v4zm6 12h-4v-4h4v4zm0-6h-4v-4h4v4zm0-6h-4V4h4v4z"/>
        </symbol>
        <symbol id="icon-visibility" viewBox="0 0 24 24" width="24">
            <path d="M0 0h24v24H0z" fill="none"/>
            <path d="M12 4.5C7 4.5 2.73 7.61 1 12c1.73 4.39 6 7.5 11 7.5s9.27-3.11 11-7.5c-1.73-4.39-6-7.5-11-7.5zM12 17c-2.76 0-5-2.24-5-5s2.24-5 5-5 5 2.24 5 5-2.24 5-5 5zm0-8c-1.66 0-3 1.34-3 3s1.34 3 3 3 3-1.34 3-3-1.34-3-3-3z"/>
        </symbol>
        <symbol id="icon-hidden" viewBox="0 0 24 24">
            <path d="M0 0h24v24H0zm0 0h24v24H0zm0 0h24v24H0zm0 0h24v24H0z" fill="none"/>
            <path d="M12 7c2.76 0 5 2.24 5 5 0 .65-.13 1.26-.36 1.83l2.92 2.92c1.51-1.26 2.7-2.89 3.43-4.75-1.73-4.39-6-7.5-11-7.5-1.4 0-2.74.25-3.98.7l2.16 2.16C10.74 7.13 11.35 7 12 7zM2 4.27l2.28 2.28.46.46C3.08 8.3 1.78 10.02 1 12c1.73 4.39 6 7.5 11 7.5 1.55 0 3.03-.3 4.38-.84l.42.42L19.73 22 21 20.73 3.27 3 2 4.27zM7.53 9.8l1.55 1.55c-.05.21-.08.43-.08.65 0 1.66 1.34 3 3 3 .22 0 .44-.03.65-.08l1.55 1.55c-.67.33-1.41.53-2.2.53-2.76 0-5-2.24-5-5 0-.79.2-1.53.53-2.2zm4.31-.78l3.15 3.15.02-.16c0-1.66-1.34-3-3-3l-.17.01z"/>
        </symbol>
        <symbol id="icon-attachment" viewBox="0 0 24 24">
            <path d="M2 12.5C2 9.46 4.46 7 7.5 7H18c2.21 0 4 1.79 4 4s-1.79 4-4 4H9.5C8.12 15 7 13.88 7 12.5S8.12 10 9.5 10H17v2H9.41c-.55 0-.55 1 0 1H18c1.1 0 2-.9 2-2s-.9-2-2-2H7.5C5.57 9 4 10.57 4 12.5S5.57 16 7.5 16H17v2H7.5C4.46 18 2 15.54 2 12.5z"/>
            <path d="M0 0h24v24H0V0z" fill="none"/>
        </symbol>
        <symbol id="icon-done" viewBox="0 0 24 24">
            <path d="M0 0h24v24H0z" fill="none"/>
            <path d="M9 16.2L4.8 12l-1.4 1.4L9 19 21 7l-1.4-1.4L9 16.2z"/>
        </symbol>
        <symbol id="icon-clear" viewBox="0 0 24 24">
            <path d="M19 6.41L17.59 5 12 10.59 6.41 5 5 6.41 10.59 12 5 17.59 6.41 19 12 13.41 17.59 19 19 17.59 13.41 12z"/>
            <path d="M0 0h24v24H0z" fill="none"/>
        </symbol>
        <symbol id="icon-check" viewBox="0 0 24 24">
            <path d="M0 0h24v24H0z" fill="none"/>
            <path d="M9 16.17L4.83 12l-1.42 1.41L9 19 21 7l-1.41-1.41z"/>
        </symbol>
        <symbol id="icon-block" viewBox="0 0 24 24">
            <path d="M0 0h24v24H0z" fill="none"/>
            <path d="M12 2C6.48 2 2 6.48 2 12s4.48 10 10 10 10-4.48 10-10S17.52 2 12 2zM4 12c0-4.42 3.58-8 8-8 1.85 0 3.55.63 4.9 1.69L5.69 16.9C4.63 15.55 4 13.85 4 12zm8 8c-1.85 0-3.55-.63-4.9-1.69L18.31 7.1C19.37 8.45 20 10.15 20 12c0 4.42-3.58 8-8 8z"/>
        </symbol>
        <symbol id="icon-send" viewBox="0 0 24 24">
            <path d="M2.01 21L23 12 2.01 3 2 10l15 2-15 2z"/>
            <path d="M0 0h24v24H0z" fill="none"/>
        </symbol>
        <symbol id="icon-edit" viewBox="0 0 24 24">
            <path d="M3 17.25V21h3.75L17.81 9.94l-3.75-3.75L3 17.25zM20.71 7.04c.39-.39.39-1.02 0-1.41l-2.34-2.34c-.39-.39-1.02-.39-1.41 0l-1.83 1.83 3.75 3.75 1.83-1.83z"/>
            <path d="M0 0h24v24H0z" fill="none"/>
        </symbol>
        <symbol id="icon-remove" viewBox="0 0 24 24">
            <path d="M6 19c0 1.1.9 2 2 2h8c1.1 0 2-.9 2-2V7H6v12zM8 9h8v10H8V9zm7.5-5l-1-1h-5l-1 1H5v2h14V4z"/>
            <path fill="none" d="M0 0h24v24H0V0z"/>
        </symbol>
        <symbol id="icon-pdf" viewBox="0 0 533.333 533.333">
            <path d="M438.548,307.021c-7.108-7.003-22.872-10.712-46.86-11.027c-16.238-0.179-35.782,1.251-56.339,4.129
                c-9.205-5.311-18.691-11.091-26.139-18.051c-20.033-18.707-36.755-44.673-47.175-73.226c0.679-2.667,1.257-5.011,1.795-7.403
                c0,0,11.284-64.093,8.297-85.763c-0.411-2.972-0.664-3.834-1.463-6.144l-0.98-2.518c-3.069-7.079-9.087-14.58-18.522-14.171
                l-5.533-0.176l-0.152-0.003c-10.521,0-19.096,5.381-21.347,13.424c-6.842,25.226,0.218,62.964,13.012,111.842l-3.275,7.961
                c-9.161,22.332-20.641,44.823-30.77,64.665l-1.317,2.581c-10.656,20.854-20.325,38.557-29.09,53.554l-9.05,4.785
                c-0.659,0.348-16.169,8.551-19.807,10.752c-30.862,18.427-51.313,39.346-54.706,55.946c-1.08,5.297-0.276,12.075,5.215,15.214
                l8.753,4.405c3.797,1.902,7.801,2.866,11.903,2.866c21.981,0,47.5-27.382,82.654-88.732
                c40.588-13.214,86.799-24.197,127.299-30.255c30.864,17.379,68.824,29.449,92.783,29.449c4.254,0,7.921-0.406,10.901-1.194
                c4.595-1.217,8.468-3.838,10.829-7.394c4.648-6.995,5.591-16.631,4.329-26.497C443.417,313.113,441.078,309.493,438.548,307.021z
                M110.233,423.983c4.008-10.96,19.875-32.627,43.335-51.852c1.475-1.196,5.108-4.601,8.435-7.762
                C137.47,403.497,121.041,419.092,110.233,423.983z M249.185,104.003c7.066,0,11.085,17.81,11.419,34.507
                c0.333,16.698-3.572,28.417-8.416,37.088c-4.012-12.838-5.951-33.073-5.951-46.304
                C246.237,129.294,245.942,104.003,249.185,104.003z M207.735,332.028c4.922-8.811,10.043-18.103,15.276-27.957
                c12.756-24.123,20.812-42.999,26.812-58.514c11.933,21.71,26.794,40.167,44.264,54.955c2.179,1.844,4.488,3.698,6.913,5.547
                C265.474,313.088,234.769,321.637,207.735,332.028z M431.722,330.027c-2.164,1.353-8.362,2.135-12.349,2.135
                c-12.867,0-28.787-5.883-51.105-15.451c8.575-0.635,16.438-0.957,23.489-0.957c12.906,0,16.729-0.056,29.349,3.163
                S433.885,328.674,431.722,330.027z M470.538,103.87L396.13,29.463C379.925,13.258,347.917,0,325,0H75
                C52.083,0,33.333,18.75,33.333,41.667v450c0,22.916,18.75,41.666,41.667,41.666h383.333c22.916,0,41.666-18.75,41.666-41.666V175
                C500,152.083,486.742,120.074,470.538,103.87z M446.968,127.44c1.631,1.631,3.255,3.633,4.833,5.893h-85.134V48.2
                c2.261,1.578,4.263,3.203,5.893,4.833L446.968,127.44z M466.667,491.667c0,4.517-3.816,8.333-8.333,8.333H75
                c-4.517,0-8.333-3.816-8.333-8.333v-450c0-4.517,3.817-8.333,8.333-8.333h250c2.517,0,5.341,0.318,8.334,0.887v132.446H465.78
                c0.569,2.993,0.887,5.816,0.887,8.333V491.667z"/>
        </symbol>
        <symbol id="icon-date" viewBox="0 0 24 24">
            <path d="M9 11H7v2h2v-2zm4 0h-2v2h2v-2zm4 0h-2v2h2v-2zm2-7h-1V2h-2v2H8V2H6v2H5c-1.11 0-1.99.9-1.99 2L3 20c0 1.1.89 2 2 2h14c1.1 0 2-.9 2-2V6c0-1.1-.9-2-2-2zm0 16H5V9h14v11z"/>
            <path fill="none" d="M0 0h24v24H0z"/>
        </symbol>
        <symbol id="icon-mail" viewBox="0 0 21.367 18.696">
          <path xmlns="http://www.w3.org/2000/svg" id="email_icon" d="M20.032 1H1.335A1.335 1.335 0 0 0 0 2.335v16.026A1.335 1.335 0 0 0 1.335 19.7h18.7a1.335 1.335 0 0 0 1.335-1.335V2.335A1.335 1.335 0 0 0 20.032 1zM18.7 17.026H2.671V8.643l7.35 4.2a1.333 1.333 0 0 0 1.325 0l7.35-4.2zm0-11.458l-8.013 4.579-8.016-4.58v-1.9H18.7z" class="cls-1" data-name="email icon" transform="translate(0 -1)"/>
        </symbol>

        <svg id="icon-dropdown" viewBox="0 0 24 24">
            <path d="M16.59 8.59L12 13.17 7.41 8.59 6 10l6 6 6-6z"/>
            <path d="M0 0h24v24H0z" fill="none"/>
        </svg>


        
 <symbol id="icon-download" viewBox="0 0 55 51">
  <defs>
    <style>
      .cls-1 {
        fill: #fc1298;
      }
    </style>
  </defs>
  <g id="download-icon" transform="translate(0 -4.49)">
    <path id="Path_110" data-name="Path 110" class="cls-1" d="M51.832,52.244a3.169,3.169,0,0,0-3.168,3.173V69.349H6.335V55.417a3.168,3.168,0,1,0-6.335,0v17.1a3.17,3.17,0,0,0,3.168,3.173H51.832A3.17,3.17,0,0,0,55,72.521v-17.1A3.169,3.169,0,0,0,51.832,52.244Z" transform="translate(0 -20.204)"/>
    <path id="Path_111" data-name="Path 111" class="cls-1" d="M31.948,39.938a3.163,3.163,0,0,0,4.48,0L49.2,27.144a3.17,3.17,0,0,0-4.479-4.486l-7.366,7.378V2.8c0-1.753-6.335-1.753-6.335,0V30.035l-7.364-7.376a3.17,3.17,0,1,0-4.48,4.486Z" transform="translate(-6.688 3)"/>
  </g>
</symbol>
<symbol id="icon-upload" viewBox="0 0 55 51">
  <defs>
    <style>
      .cls-1 {
        fill: #0595ff;
      }
    </style>
  </defs>
  <g id="upload" transform="translate(0 -4.49)">
    <path id="Path_110" data-name="Path 110" class="cls-1" d="M51.832,52.244a3.169,3.169,0,0,0-3.168,3.173V69.349H6.335V55.417a3.168,3.168,0,1,0-6.335,0v17.1a3.17,3.17,0,0,0,3.168,3.173H51.832A3.17,3.17,0,0,0,55,72.521v-17.1A3.169,3.169,0,0,0,51.832,52.244Z" transform="translate(0 -20.204)"/>
    <path id="Path_111" data-name="Path 111" class="cls-1" d="M13.7,38.448a3.163,3.163,0,0,0,4.48,0L30.951,25.655a3.17,3.17,0,0,0-4.479-4.486l-7.366,7.378V1.314c0-1.753-6.335-1.753-6.335,0V28.546L5.407,21.169a3.17,3.17,0,1,0-4.48,4.486Z" transform="translate(43.44 43.867) rotate(180)"/>
  </g>
 </symbol>
 <symbol id="icon-camera" viewBox="0 0 100 100">

    <path style="fill:#ffffff;" d="M50,40c-8.285,0-15,6.718-15,15c0,8.285,6.715,15,15,15c8.283,0,15-6.715,15-15
        C65,46.718,58.283,40,50,40z M90,25H78c-1.65,0-3.428-1.28-3.949-2.846l-3.102-9.309C70.426,11.28,68.65,10,67,10H33
        c-1.65,0-3.428,1.28-3.949,2.846l-3.102,9.309C25.426,23.72,23.65,25,22,25H10C4.5,25,0,29.5,0,35v45c0,5.5,4.5,10,10,10h80
        c5.5,0,10-4.5,10-10V35C100,29.5,95.5,25,90,25z M50,80c-13.807,0-25-11.193-25-25c0-13.806,11.193-25,25-25
        c13.805,0,25,11.194,25,25C75,68.807,63.805,80,50,80z M86.5,41.993c-1.932,0-3.5-1.566-3.5-3.5c0-1.932,1.568-3.5,3.5-3.5
        c1.934,0,3.5,1.568,3.5,3.5C90,40.427,88.433,41.993,86.5,41.993z"/>
</symbol>

  <symbol id="icon-edit2" viewBox="0 0 22.803 22.764">
    <path xmlns="http://www.w3.org/2000/svg" id="pen-edit" d="M22.95 26.335L36.085 13.2l5.248 5.215L28.2 31.55l-6.9 1.65z" class="cls-1" transform="translate(-19.947 -11.788)"/>
  </symbol>

  <symbol viewBox="0 0 201.324 201.324" id="doctor-stethoscope">
        <circle cx="95.596" cy="10.083" r="10.083"/>
        <circle cx="149.018" cy="10.083" r="10.083"/>
        <path d="M179.06,19.254c-5.123-8.873-14.298-14.17-24.544-14.17v10c6.631,0,12.568,3.428,15.884,9.17  c3.316,5.743,3.316,12.599,0.001,18.342l-32.122,55.636c-3.315,5.742-9.253,9.17-15.884,9.171c-6.631,0-12.569-3.428-15.885-9.171  L74.389,42.595c-3.315-5.742-3.315-12.599,0-18.341s9.254-9.171,15.885-9.171v-10c-10.246,0-19.422,5.297-24.545,14.171  s-5.123,19.468,0,28.341l32.121,55.636c4.272,7.399,11.366,12.299,19.545,13.727v26.832c0,26.211-15.473,47.535-34.492,47.535  c-19.019,0-34.491-21.324-34.491-47.535v-31.948C59.802,109.52,68.4,99.424,68.4,87.356c0-13.779-11.21-24.989-24.989-24.989  s-24.989,11.21-24.989,24.989c0,12.067,8.598,22.163,19.989,24.486v31.948c0,31.725,19.959,57.535,44.492,57.535  c24.532,0,44.491-25.81,44.491-57.535v-26.832c8.178-1.428,15.273-6.328,19.544-13.727l32.122-55.636  C184.184,38.722,184.184,28.127,179.06,19.254z"/>
  </symbol>



    </defs>
</svg>
